<svg xmlns="http://www.w3.org/2000/svg" viewBox="0 0 600 500" width="600" height="500">
  <defs>
    <linearGradient id="buildingGradient" x1="0%" y1="0%" x2="100%" y2="100%">
      <stop offset="0%" style="stop-color:#2563eb;stop-opacity:1" />
      <stop offset="100%" style="stop-color:#1d4ed8;stop-opacity:1" />
    </linearGradient>
    <linearGradient id="successGradient" x1="0%" y1="0%" x2="100%" y2="100%">
      <stop offset="0%" style="stop-color:#10b981;stop-opacity:1" />
      <stop offset="100%" style="stop-color:#059669;stop-opacity:1" />
    </linearGradient>
    <linearGradient id="skyGradient" x1="0%" y1="0%" x2="0%" y2="100%">
      <stop offset="0%" style="stop-color:#dbeafe;stop-opacity:1" />
      <stop offset="100%" style="stop-color:#ffffff;stop-opacity:1" />
    </linearGradient>
    <linearGradient id="pathGradient" x1="0%" y1="0%" x2="100%" y2="0%">
      <stop offset="0%" style="stop-color:#f59e0b;stop-opacity:1" />
      <stop offset="100%" style="stop-color:#d97706;stop-opacity:1" />
    </linearGradient>
  </defs>
  
  <!-- Sky Background -->
  <rect width="600" height="300" fill="url(#skyGradient)"/>
  
  <!-- Ground -->
  <rect y="300" width="600" height="200" fill="#15803d" opacity="0.1"/>
  
  <!-- Excellence Institute Building -->
  <g transform="translate(200,150)">
    <!-- Main Building -->
    <rect x="0" y="50" width="200" height="150" fill="url(#buildingGradient)"/>
    
    <!-- Building Details -->
    <rect x="10" y="60" width="30" height="40" fill="#ffffff" opacity="0.9"/>
    <rect x="50" y="60" width="30" height="40" fill="#ffffff" opacity="0.9"/>
    <rect x="90" y="60" width="30" height="40" fill="#ffffff" opacity="0.9"/>
    <rect x="130" y="60" width="30" height="40" fill="#ffffff" opacity="0.9"/>
    <rect x="170" y="60" width="20" height="40" fill="#ffffff" opacity="0.9"/>
    
    <!-- Second Floor Windows -->
    <rect x="10" y="110" width="30" height="40" fill="#ffffff" opacity="0.9"/>
    <rect x="50" y="110" width="30" height="40" fill="#ffffff" opacity="0.9"/>
    <rect x="90" y="110" width="30" height="40" fill="#ffffff" opacity="0.9"/>
    <rect x="130" y="110" width="30" height="40" fill="#ffffff" opacity="0.9"/>
    <rect x="170" y="110" width="20" height="40" fill="#ffffff" opacity="0.9"/>
    
    <!-- Entrance -->
    <rect x="80" y="160" width="40" height="40" fill="#7c2d12"/>
    <circle cx="100" cy="175" r="2" fill="#fbbf24"/>
    
    <!-- Institute Sign -->
    <rect x="20" y="30" width="160" height="15" fill="#ffffff"/>
    <text x="100" y="41" text-anchor="middle" font-family="Arial, sans-serif" font-size="8" fill="#2563eb" font-weight="bold">EXCELLENCE INSTITUTE</text>
    
    <!-- Roof -->
    <polygon points="0,50 100,20 200,50" fill="#7c2d12"/>
    
    <!-- Flag -->
    <rect x="95" y="5" width="2" height="20" fill="#6b7280"/>
    <rect x="97" y="5" width="15" height="10" fill="#ef4444"/>
  </g>
  
  <!-- Students Walking to Success -->
  <g transform="translate(50,320)">
    <!-- Success Path -->
    <path d="M0,50 Q100,30 200,40 Q300,50 400,30 Q500,20 550,30" 
          stroke="url(#pathGradient)" stroke-width="8" fill="none" opacity="0.8"/>
    
    <!-- Student 1 - Beginning Journey -->
    <g transform="translate(20,45)">
      <circle cx="0" cy="0" r="12" fill="#fbbf24"/>
      <rect x="-8" y="12" width="16" height="25" rx="5" fill="#2563eb"/>
      <rect x="-12" y="18" width="6" height="20" rx="3" fill="#2563eb"/>
      <rect x="6" y="18" width="6" height="20" rx="3" fill="#2563eb"/>
      <!-- Backpack -->
      <rect x="8" y="15" width="8" height="15" rx="2" fill="#7c2d12"/>
      <!-- Book in hand -->
      <rect x="-15" y="25" width="6" height="8" rx="1" fill="#f59e0b"/>
    </g>
    
    <!-- Student 2 - Mid Journey -->
    <g transform="translate(150,35)">
      <circle cx="0" cy="0" r="12" fill="#fb7185"/>
      <rect x="-8" y="12" width="16" height="25" rx="5" fill="#7c3aed"/>
      <rect x="-12" y="18" width="6" height="20" rx="3" fill="#7c3aed"/>
      <rect x="6" y="18" width="6" height="20" rx="3" fill="#7c3aed"/>
      <!-- Graduation Cap -->
      <polygon points="-10,0 10,0 12,5 8,8 -8,8 -12,5" fill="#1f2937"/>
      <circle cx="10" cy="5" r="1.5" fill="#f59e0b"/>
    </g>
    
    <!-- Student 3 - Near Success -->
    <g transform="translate(280,45)">
      <circle cx="0" cy="0" r="12" fill="#34d399"/>
      <rect x="-8" y="12" width="16" height="25" rx="5" fill="#059669"/>
      <rect x="-12" y="18" width="6" height="20" rx="3" fill="#059669"/>
      <rect x="6" y="18" width="6" height="20" rx="3" fill="#059669"/>
      <!-- Medal -->
      <circle cx="0" cy="20" r="4" fill="#fbbf24"/>
      <text x="0" y="23" text-anchor="middle" font-family="Arial" font-size="4" fill="#7c2d12">1</text>
    </g>
    
    <!-- Student 4 - Success Achieved -->
    <g transform="translate(450,25)">
      <circle cx="0" cy="0" r="12" fill="#fde047"/>
      <rect x="-8" y="12" width="16" height="25" rx="5" fill="#16a34a"/>
      <rect x="-12" y="18" width="6" height="20" rx="3" fill="#16a34a"/>
      <rect x="6" y="18" width="6" height="20" rx="3" fill="#16a34a"/>
      <!-- Trophy -->
      <rect x="-3" y="8" width="6" height="8" fill="#fbbf24"/>
      <rect x="-4" y="6" width="8" height="3" fill="#fbbf24"/>
      <circle cx="0" cy="4" r="2" fill="#fbbf24"/>
    </g>
  </g>
  
  <!-- Achievement Symbols -->
  <g transform="translate(450,100)" opacity="0.8">
    <!-- Success Cloud with achievements -->
    <ellipse cx="0" cy="0" rx="80" ry="40" fill="url(#successGradient)" opacity="0.2"/>
    
    <!-- NEET Symbol -->
    <g transform="translate(-40,-10)">
      <circle cx="0" cy="0" r="8" fill="#ef4444"/>
      <path d="M-3,-3 L3,3 M3,-3 L-3,3" stroke="#ffffff" stroke-width="2"/>
      <text x="0" y="-15" text-anchor="middle" font-size="6" fill="#1f2937">NEET</text>
    </g>
    
    <!-- JEE Symbol -->
    <g transform="translate(0,-15)">
      <rect x="-6" y="-6" width="12" height="12" fill="#2563eb" rx="2"/>
      <text x="0" y="2" text-anchor="middle" font-size="6" fill="#ffffff" font-weight="bold">JEE</text>
      <text x="0" y="-20" text-anchor="middle" font-size="6" fill="#1f2937">JEE</text>
    </g>
    
    <!-- CET Symbol -->
    <g transform="translate(40,-10)">
      <polygon points="0,-8 6,0 0,8 -6,0" fill="#f59e0b"/>
      <text x="0" y="2" text-anchor="middle" font-size="5" fill="#ffffff" font-weight="bold">C</text>
      <text x="0" y="-15" text-anchor="middle" font-size="6" fill="#1f2937">CET</text>
    </g>
    
    <!-- Success Percentage -->
    <text x="0" y="25" text-anchor="middle" font-size="12" fill="#059669" font-weight="bold">95% Success</text>
  </g>
  
  <!-- Knowledge Tree -->
  <g transform="translate(100,250)">
    <!-- Tree Trunk -->
    <rect x="-5" y="20" width="10" height="30" fill="#92400e"/>
    
    <!-- Tree Crown -->
    <circle cx="0" cy="10" r="20" fill="#16a34a"/>
    
    <!-- Knowledge Fruits -->
    <circle cx="-10" cy="5" r="3" fill="#ef4444"/>
    <circle cx="8" cy="0" r="3" fill="#f59e0b"/>
    <circle cx="5" cy="15" r="3" fill="#8b5cf6"/>
    <circle cx="-8" cy="18" r="3" fill="#06b6d4"/>
    
    <!-- Subject Labels on fruits -->
    <text x="-10" y="7" text-anchor="middle" font-size="2" fill="#ffffff">P</text>
    <text x="8" y="2" text-anchor="middle" font-size="2" fill="#ffffff">C</text>
    <text x="5" y="17" text-anchor="middle" font-size="2" fill="#ffffff">M</text>
    <text x="-8" y="20" text-anchor="middle" font-size="2" fill="#ffffff">B</text>
  </g>
  
  <!-- Excellence Values Floating Around -->
  <g opacity="0.6">
    <!-- Innovation -->
    <g transform="translate(80,100)">
      <circle cx="0" cy="0" r="15" fill="#8b5cf6" opacity="0.3"/>
      <path d="M-5,-5 L5,5 M0,-8 L0,8 M-8,0 L8,0" stroke="#8b5cf6" stroke-width="2"/>
      <text x="0" y="25" text-anchor="middle" font-size="8" fill="#8b5cf6" font-weight="bold">Innovation</text>
    </g>
    
    <!-- Excellence -->
    <g transform="translate(520,180)">
      <polygon points="0,-10 3,-3 10,-3 5,2 7,9 0,5 -7,9 -5,2 -10,-3 -3,-3" fill="#fbbf24"/>
      <text x="0" y="25" text-anchor="middle" font-size="8" fill="#fbbf24" font-weight="bold">Excellence</text>
    </g>
    
    <!-- Commitment -->
    <g transform="translate(50,400)">
      <path d="M-8,0 Q0,-10 8,0 Q0,10 -8,0" fill="#ef4444"/>
      <text x="0" y="25" text-anchor="middle" font-size="8" fill="#ef4444" font-weight="bold">Commitment</text>
    </g>
    
    <!-- Integrity -->
    <g transform="translate(500,380)">
      <rect x="-8" y="-8" width="16" height="16" fill="#059669" rx="3"/>
      <path d="M-3,0 L0,3 L6,-3" stroke="#ffffff" stroke-width="2" fill="none"/>
      <text x="0" y="25" text-anchor="middle" font-size="8" fill="#059669" font-weight="bold">Integrity</text>
    </g>
  </g>
  
  <!-- Timeline Years -->
  <g transform="translate(50,450)" opacity="0.7">
    <text x="0" y="0" font-size="10" fill="#6b7280" font-weight="bold">2009</text>
    <text x="100" y="0" font-size="10" fill="#6b7280" font-weight="bold">2015</text>
    <text x="200" y="0" font-size="10" fill="#6b7280" font-weight="bold">2020</text>
    <text x="300" y="0" font-size="10" fill="#059669" font-weight="bold">2025</text>
    <text x="400" y="0" font-size="10" fill="#2563eb" font-weight="bold">Future</text>
    
    <!-- Timeline Line -->
    <line x1="0" y1="-5" x2="450" y2="-5" stroke="#6b7280" stroke-width="2"/>
    
    <!-- Milestone Markers -->
    <circle cx="0" cy="-5" r="3" fill="#6b7280"/>
    <circle cx="100" cy="-5" r="3" fill="#6b7280"/>
    <circle cx="200" cy="-5" r="3" fill="#6b7280"/>
    <circle cx="300" cy="-5" r="3" fill="#059669"/>
    <circle cx="450" cy="-5" r="3" fill="#2563eb"/>
  </g>
  
  <!-- Decorative Elements -->
  <g opacity="0.4">
    <!-- Academic Caps floating -->
    <g transform="translate(150,80) rotate(15)">
      <polygon points="0,0 20,0 22,3 18,6 2,6 -2,3" fill="#1f2937"/>
      <circle cx="20" cy="3" r="1" fill="#f59e0b"/>
    </g>
    
    <g transform="translate(480,120) rotate(-20)">
      <polygon points="0,0 15,0 17,2 13,5 2,5 -2,2" fill="#1f2937"/>
      <circle cx="15" cy="2" r="1" fill="#f59e0b"/>
    </g>
    
    <!-- Books -->
    <rect x="120" y="60" width="15" height="10" rx="1" fill="#f59e0b" transform="rotate(25 127 65)"/>
    <rect x="480" y="250" width="12" height="8" rx="1" fill="#2563eb" transform="rotate(-15 486 254)"/>
  </g>
</svg>
