<svg xmlns="http://www.w3.org/2000/svg" viewBox="0 0 100 100" width="100" height="100">
  <defs>
    <linearGradient id="logoGradient" x1="0%" y1="0%" x2="100%" y2="100%">
      <stop offset="0%" style="stop-color:#2563eb;stop-opacity:1" />
      <stop offset="100%" style="stop-color:#1d4ed8;stop-opacity:1" />
    </linearGradient>
    <linearGradient id="bookGradient" x1="0%" y1="0%" x2="100%" y2="100%">
      <stop offset="0%" style="stop-color:#f59e0b;stop-opacity:1" />
      <stop offset="100%" style="stop-color:#d97706;stop-opacity:1" />
    </linearGradient>
  </defs>
  
  <!-- Background Circle -->
  <circle cx="50" cy="50" r="48" fill="url(#logoGradient)" stroke="#ffffff" stroke-width="2"/>
  
  <!-- Book Base -->
  <rect x="25" y="35" width="50" height="35" rx="2" fill="url(#bookGradient)"/>
  
  <!-- Book Pages -->
  <rect x="27" y="33" width="46" height="2" fill="#ffffff" opacity="0.8"/>
  <rect x="27" y="30" width="46" height="2" fill="#ffffff" opacity="0.6"/>
  <rect x="27" y="27" width="46" height="2" fill="#ffffff" opacity="0.4"/>
  
  <!-- Graduation Cap -->
  <polygon points="35,25 65,25 70,30 60,35 40,35 30,30" fill="#1f2937"/>
  
  <!-- Cap Tassel -->
  <circle cx="65" cy="30" r="2" fill="#f59e0b"/>
  <line x1="67" y1="30" x2="72" y2="35" stroke="#f59e0b" stroke-width="2" stroke-linecap="round"/>
  <circle cx="72" cy="35" r="1.5" fill="#f59e0b"/>
  
  <!-- Excellence Star -->
  <polygon points="50,15 52,21 58,21 53,25 55,31 50,27 45,31 47,25 42,21 48,21" fill="#ffffff"/>
  
  <!-- Knowledge Rays -->
  <g stroke="#ffffff" stroke-width="1.5" stroke-linecap="round" opacity="0.7">
    <line x1="20" y1="20" x2="25" y2="25"/>
    <line x1="80" y1="20" x2="75" y2="25"/>
    <line x1="15" y1="50" x2="20" y2="50"/>
    <line x1="85" y1="50" x2="80" y2="50"/>
    <line x1="20" y1="80" x2="25" y2="75"/>
    <line x1="80" y1="80" x2="75" y2="75"/>
  </g>
  
  <!-- Inner Text Lines (representing knowledge) -->
  <g fill="#ffffff" opacity="0.8">
    <rect x="32" y="45" width="20" height="1"/>
    <rect x="32" y="48" width="25" height="1"/>
    <rect x="32" y="51" width="18" height="1"/>
    <rect x="32" y="54" width="22" height="1"/>
    <rect x="32" y="57" width="15" height="1"/>
  </g>
</svg>
